<?xml version="1.0" encoding="UTF-8" standalone="no"?>
<?xml-stylesheet href="iterator.svg.css" type="text/css"?>
<!-- Created by diasvg.py -->
<svg width="47.950cm" height="41.837cm" viewBox="-0.050 6.400 47.900 48.237"
 xmlns="http://www.w3.org/2000/svg"
 xmlns:xlink="http://www.w3.org/1999/xlink">
<polyline fill="none" stroke="#000000" stroke-width="0.100"  points="15.009,22.362 15.009,24.200 10.836,24.200 10.836,26.950 "/>
<polygon fill="#FFFFFF" stroke="none" stroke-width="0.100" points="15.409,22.362 15.009,21.562 14.609,22.362 "/>
<polygon fill="none" stroke="#000000" stroke-width="0.100"  points="15.409,22.362 15.009,21.562 14.609,22.362 "/>
<polyline fill="none" stroke="#000000" stroke-width="0.100"  points="29.838,15.050 25.659,15.050 25.659,19.200 20.568,19.200 "/>
<polygon fill="#FFFFFF" stroke="none" stroke-width="0.100" points="29.838,15.450 30.638,15.050 29.838,14.650 "/>
<polygon fill="none" stroke="#000000" stroke-width="0.100"  points="29.838,15.450 30.638,15.050 29.838,14.650 "/>
<polyline fill="none" stroke="#000000" stroke-width="0.100"  points="15.009,22.362 15.009,24.200 19.057,24.200 19.057,26.950 "/>
<polygon fill="#FFFFFF" stroke="none" stroke-width="0.100" points="15.409,22.362 15.009,21.562 14.609,22.362 "/>
<polygon fill="none" stroke="#000000" stroke-width="0.100"  points="15.409,22.362 15.009,21.562 14.609,22.362 "/>
<polyline fill="none" stroke="#000000" stroke-width="0.100"  points="34.986,24.612 34.986,25.600 27.456,25.600 27.456,26.950 "/>
<polygon fill="#FFFFFF" stroke="none" stroke-width="0.100" points="35.386,24.612 34.986,23.812 34.586,24.612 "/>
<polygon fill="none" stroke="#000000" stroke-width="0.100"  points="35.386,24.612 34.986,23.812 34.586,24.612 "/>
<polyline fill="none" stroke="#000000" stroke-width="0.100"  points="34.986,24.612 34.986,25.600 35.024,25.600 35.024,26.950 "/>
<polygon fill="#FFFFFF" stroke="none" stroke-width="0.100" points="35.386,24.612 34.986,23.812 34.586,24.612 "/>
<polygon fill="none" stroke="#000000" stroke-width="0.100"  points="35.386,24.612 34.986,23.812 34.586,24.612 "/>
<polyline fill="none" stroke="#000000" stroke-width="0.100" stroke-dasharray="0.40,0.40" points="3.200,31.400 3.200,29.200 6.865,29.200 "/>
<polyline fill="none" stroke="#000000" stroke-width="0.100"  points="6.233,29.450 7.033,29.200 6.233,28.950 "/>
<polyline fill="none" stroke="#000000" stroke-width="0.100"  points="34.986,24.612 34.986,25.600 42.936,25.600 42.936,27.000 "/>
<polygon fill="#FFFFFF" stroke="none" stroke-width="0.100" points="35.386,24.612 34.986,23.812 34.586,24.612 "/>
<polygon fill="none" stroke="#000000" stroke-width="0.100"  points="35.386,24.612 34.986,23.812 34.586,24.612 "/>
<rect x="0.000" y="31.450" width="6.400" height="1.400" fill="#FFFFFF" stroke="none" stroke-width="0"/>
<rect x="0.000" y="31.450" width="6.400" height="1.400" fill="none" stroke="#000000" stroke-width="0.100" />
<text x="3.200" y="32.450"  fill="#000000" text-anchor="middle" font-size="1.00" font-family="verdana" font-style="normal" font-weight="700">
DBListIterator</text>
<rect x="0.000" y="32.850" width="6.400" height="0.400" fill="#FFFFFF" stroke="none" stroke-width="0"/>
<rect x="0.000" y="32.850" width="6.400" height="0.400" fill="none" stroke="#000000" stroke-width="0.100" />
<rect x="0.000" y="33.250" width="6.400" height="3.400" fill="#FFFFFF" stroke="none" stroke-width="0"/>
<rect x="0.000" y="33.250" width="6.400" height="3.400" fill="none" stroke="#000000" stroke-width="0.100" />
<text x="0.150" y="33.938"  fill="#000000" text-anchor="start" font-size="0.80" font-family="verdana" font-style="normal" font-weight="400">
+reset()</text>
<text x="0.150" y="34.738"  fill="#000000" text-anchor="start" font-size="0.80" font-family="verdana" font-style="normal" font-weight="400">
+getList()</text>
<text x="0.150" y="35.538"  fill="#000000" text-anchor="start" font-size="0.80" font-family="verdana" font-style="normal" font-weight="400">
+getDelimiter()</text>
<text x="0.150" y="36.337"  fill="#000000" text-anchor="start" font-size="0.80" font-family="verdana" font-style="normal" font-weight="400">
+setDelimiter()</text>
<rect x="30.800" y="6.450" width="8.372" height="1.400" fill="#FFFFFF" stroke="none" stroke-width="0"/>
<rect x="30.800" y="6.450" width="8.372" height="1.400" fill="none" stroke="#000000" stroke-width="0.100" />
<text x="34.986" y="7.450"  fill="#000000" text-anchor="middle" font-size="1.00" font-family="verdana" font-style="normal" font-weight="700">
AbstractDBIterator</text>
<rect x="30.800" y="7.850" width="8.372" height="0.400" fill="#FFFFFF" stroke="none" stroke-width="0"/>
<rect x="30.800" y="7.850" width="8.372" height="0.400" fill="none" stroke="#000000" stroke-width="0.100" />
<rect x="30.800" y="8.250" width="8.372" height="15.400" fill="#FFFFFF" stroke="none" stroke-width="0"/>
<rect x="30.800" y="8.250" width="8.372" height="15.400" fill="none" stroke="#000000" stroke-width="0.100" />
<text x="30.950" y="8.938"  fill="#000000" text-anchor="start" font-size="0.80" font-family="verdana" font-style="normal" font-weight="400">
+getCollection()</text>
<text x="30.950" y="9.738"  fill="#000000" text-anchor="start" font-size="0.80" font-family="verdana" font-style="normal" font-weight="400">
+getLength()</text>
<text x="30.950" y="10.538"  fill="#000000" text-anchor="start" font-size="0.80" font-family="verdana" font-style="normal" font-weight="400">
+getKey()</text>
<text x="30.950" y="11.338"  fill="#000000" text-anchor="start" font-size="0.80" font-family="verdana" font-style="normal" font-weight="400">
+getCurrent()</text>
<text x="30.950" y="12.138"  fill="#000000" text-anchor="start" font-size="0.80" font-family="verdana" font-style="normal" font-weight="400">
+getIndex()</text>
<text x="30.950" y="12.938"  fill="#000000" text-anchor="start" font-size="0.80" font-family="verdana" font-style="normal" font-weight="400">
+hasNext()</text>
<text x="30.950" y="13.738"  fill="#000000" text-anchor="start" font-size="0.80" font-family="verdana" font-style="normal" font-weight="400">
+whileHasNext()</text>
<text x="30.950" y="14.538"  fill="#000000" text-anchor="start" font-size="0.80" font-family="verdana" font-style="normal" font-weight="400">
+next()</text>
<text x="30.950" y="15.338"  fill="#000000" text-anchor="start" font-size="0.80" font-family="verdana" font-style="normal" font-weight="400">
+setNext()</text>
<text x="30.950" y="16.138"  fill="#000000" text-anchor="start" font-size="0.80" font-family="verdana" font-style="normal" font-weight="400">
+setKey()</text>
<text x="30.950" y="16.938"  fill="#000000" text-anchor="start" font-size="0.80" font-family="verdana" font-style="normal" font-weight="400">
+setCurrent()</text>
<text x="30.950" y="17.738"  fill="#000000" text-anchor="start" font-size="0.80" font-family="verdana" font-style="normal" font-weight="400">
+setIndex()</text>
<text x="30.950" y="18.537"  fill="#000000" text-anchor="start" font-size="0.80" font-family="verdana" font-style="normal" font-weight="400">
+setLength()</text>
<text x="30.950" y="19.337"  fill="#000000" text-anchor="start" font-size="0.80" font-family="verdana" font-style="normal" font-weight="400">
+setCollection()</text>
<text x="30.950" y="20.137"  fill="#000000" text-anchor="start" font-size="0.80" font-family="verdana" font-style="normal" font-weight="400">
+reset()</text>
<text x="30.950" y="20.937"  fill="#000000" text-anchor="start" font-size="0.80" font-family="verdana" font-style="normal" font-weight="400">
+getIterable()</text>
<text x="30.950" y="21.737"  fill="#000000" text-anchor="start" font-size="0.80" font-family="verdana" font-style="normal" font-weight="400">
+setIterable()</text>
<text x="30.950" y="22.537"  fill="#000000" text-anchor="start" font-size="0.80" font-family="verdana" font-style="normal" font-weight="400">
+init()</text>
<text x="30.950" y="23.337"  fill="#000000" text-anchor="start" font-size="0.80" font-family="verdana" font-style="normal" font-weight="400">
+hasValues()</text>
<rect x="9.500" y="17.000" width="11.018" height="1.400" fill="#FFFFFF" stroke="none" stroke-width="0"/>
<rect x="9.500" y="17.000" width="11.018" height="1.400" fill="none" stroke="#000000" stroke-width="0.100" />
<text x="15.009" y="18.000"  fill="#000000" text-anchor="middle" font-size="1.00" font-family="verdana" font-style="normal" font-weight="700">
AbstractDBNativeIterator</text>
<rect x="9.500" y="18.400" width="11.018" height="0.400" fill="#FFFFFF" stroke="none" stroke-width="0"/>
<rect x="9.500" y="18.400" width="11.018" height="0.400" fill="none" stroke="#000000" stroke-width="0.100" />
<rect x="9.500" y="18.800" width="11.018" height="2.600" fill="#FFFFFF" stroke="none" stroke-width="0"/>
<rect x="9.500" y="18.800" width="11.018" height="2.600" fill="none" stroke="#000000" stroke-width="0.100" />
<text x="9.650" y="19.488"  fill="#000000" text-anchor="start" font-size="0.80" font-family="verdana" font-style="normal" font-weight="400">
+init()</text>
<text x="9.650" y="20.288"  fill="#000000" text-anchor="start" font-size="0.80" font-family="verdana" font-style="normal" font-weight="400">
+hasNext()</text>
<text x="9.650" y="21.088"  fill="#000000" text-anchor="start" font-size="0.80" font-family="verdana" font-style="normal" font-weight="400">
+setNext()</text>
<rect x="7.250" y="27.000" width="7.173" height="1.400" fill="#FFFFFF" stroke="none" stroke-width="0"/>
<rect x="7.250" y="27.000" width="7.173" height="1.400" fill="none" stroke="#000000" stroke-width="0.100" />
<text x="10.836" y="28.000"  fill="#000000" text-anchor="middle" font-size="1.00" font-family="verdana" font-style="normal" font-weight="700">
DBArrayIterator</text>
<rect x="7.250" y="28.400" width="7.173" height="0.400" fill="#FFFFFF" stroke="none" stroke-width="0"/>
<rect x="7.250" y="28.400" width="7.173" height="0.400" fill="none" stroke="#000000" stroke-width="0.100" />
<rect x="7.250" y="28.800" width="7.173" height="2.600" fill="#FFFFFF" stroke="none" stroke-width="0"/>
<rect x="7.250" y="28.800" width="7.173" height="2.600" fill="none" stroke="#000000" stroke-width="0.100" />
<text x="7.400" y="29.487"  fill="#000000" text-anchor="start" font-size="0.80" font-family="verdana" font-style="normal" font-weight="400">
+reset()</text>
<text x="7.400" y="30.287"  fill="#000000" text-anchor="start" font-size="0.80" font-family="verdana" font-style="normal" font-weight="400">
+init()</text>
<text x="7.400" y="31.087"  fill="#000000" text-anchor="start" font-size="0.80" font-family="verdana" font-style="normal" font-weight="400">
+setNext()</text>
<rect x="15.350" y="27.000" width="7.415" height="1.400" fill="#FFFFFF" stroke="none" stroke-width="0"/>
<rect x="15.350" y="27.000" width="7.415" height="1.400" fill="none" stroke="#000000" stroke-width="0.100" />
<text x="19.057" y="28.000"  fill="#000000" text-anchor="middle" font-size="1.00" font-family="verdana" font-style="normal" font-weight="700">
DBStructIterator</text>
<rect x="15.350" y="28.400" width="7.415" height="0.400" fill="#FFFFFF" stroke="none" stroke-width="0"/>
<rect x="15.350" y="28.400" width="7.415" height="0.400" fill="none" stroke="#000000" stroke-width="0.100" />
<rect x="15.350" y="28.800" width="7.415" height="2.600" fill="#FFFFFF" stroke="none" stroke-width="0"/>
<rect x="15.350" y="28.800" width="7.415" height="2.600" fill="none" stroke="#000000" stroke-width="0.100" />
<text x="15.500" y="29.487"  fill="#000000" text-anchor="start" font-size="0.80" font-family="verdana" font-style="normal" font-weight="400">
+init()</text>
<text x="15.500" y="30.287"  fill="#000000" text-anchor="start" font-size="0.80" font-family="verdana" font-style="normal" font-weight="400">
+reset()</text>
<text x="15.500" y="31.087"  fill="#000000" text-anchor="start" font-size="0.80" font-family="verdana" font-style="normal" font-weight="400">
+setNext()</text>
<rect x="15.650" y="38.050" width="8.768" height="1.400" fill="#FFFFFF" stroke="none" stroke-width="0"/>
<rect x="15.650" y="38.050" width="8.768" height="1.400" fill="none" stroke="#000000" stroke-width="0.100" />
<text x="20.034" y="39.050"  fill="#000000" text-anchor="middle" font-size="1.00" font-family="verdana" font-style="normal" font-weight="700">
DBIteratorFactory</text>
<rect x="15.650" y="39.450" width="8.768" height="1.000" fill="#FFFFFF" stroke="none" stroke-width="0"/>
<rect x="15.650" y="39.450" width="8.768" height="1.000" fill="none" stroke="#000000" stroke-width="0.100" />
<text x="15.800" y="40.350"  fill="#000000" text-anchor="start" font-size="0.80" font-family="verdana" font-style="normal" font-weight="400">
-nullIterator: DBNullIterator</text>
<rect x="15.650" y="40.450" width="8.768" height="2.600" fill="#FFFFFF" stroke="none" stroke-width="0"/>
<rect x="15.650" y="40.450" width="8.768" height="2.600" fill="none" stroke="#000000" stroke-width="0.100" />
<text x="15.800" y="41.138"  fill="#000000" text-anchor="start" font-size="0.80" font-family="verdana" font-style="normal" font-weight="400">
+initialise()</text>
<text x="15.800" y="41.938"  fill="#000000" text-anchor="start" font-size="0.80" font-family="verdana" font-style="normal" font-weight="400">
+create()</text>
<text x="15.800" y="42.737"  fill="#000000" text-anchor="start" font-size="0.80" font-family="verdana" font-style="normal" font-weight="400">
+getNullIterator()</text>
<polyline fill="none" stroke="#000000" stroke-width="0.100" stroke-dasharray="0.40,0.40" points="20.034,38.000 20.034,33.200 10.836,33.200 10.836,31.786 "/>
<polyline fill="none" stroke="#000000" stroke-width="0.100"  points="11.086,32.418 10.836,31.618 10.586,32.418 "/>
<polyline fill="none" stroke="#000000" stroke-width="0.100" stroke-dasharray="0.40,0.40" points="15.601,40.550 3.200,40.550 3.200,36.985 "/>
<polyline fill="none" stroke="#000000" stroke-width="0.100"  points="3.450,37.618 3.200,36.818 2.950,37.618 "/>
<polyline fill="none" stroke="#000000" stroke-width="0.100" stroke-dasharray="0.40,0.40" points="20.034,38.000 20.034,33.200 19.057,33.200 19.057,31.786 "/>
<polyline fill="none" stroke="#000000" stroke-width="0.100"  points="19.307,32.418 19.057,31.618 18.807,32.418 "/>
<polyline fill="none" stroke="#000000" stroke-width="0.100" stroke-dasharray="0.40,0.40" points="20.034,38.000 20.034,33.200 27.456,33.200 27.456,30.986 "/>
<polyline fill="none" stroke="#000000" stroke-width="0.100"  points="27.706,31.618 27.456,30.818 27.206,31.618 "/>
<polyline fill="none" stroke="#000000" stroke-width="0.100" stroke-dasharray="0.40,0.40" points="20.034,38.000 20.034,33.200 35.024,33.200 35.024,30.185 "/>
<polyline fill="none" stroke="#000000" stroke-width="0.100"  points="35.274,30.817 35.024,30.017 34.774,30.817 "/>
<polyline fill="none" stroke="#000000" stroke-width="0.100" stroke-dasharray="0.40,0.40" points="20.034,38.000 20.034,33.200 42.936,33.200 42.936,31.835 "/>
<polyline fill="none" stroke="#000000" stroke-width="0.100"  points="43.186,32.467 42.936,31.667 42.686,32.467 "/>
<rect x="31.600" y="44.587" width="4.920" height="1.400" fill="#FFFFFF" stroke="none" stroke-width="0"/>
<rect x="31.600" y="44.587" width="4.920" height="1.400" fill="none" stroke="#000000" stroke-width="0.100" />
<text x="34.060" y="45.587"  fill="#000000" text-anchor="middle" font-size="1.00" font-family="verdana" font-style="normal" font-weight="700">
DBIterator</text>
<rect x="31.600" y="45.987" width="4.920" height="1.800" fill="#FFFFFF" stroke="none" stroke-width="0"/>
<rect x="31.600" y="45.987" width="4.920" height="1.800" fill="none" stroke="#000000" stroke-width="0.100" />
<text x="31.750" y="46.887"  fill="#000000" text-anchor="start" font-size="0.80" font-family="verdana" font-style="normal" font-weight="400">
+factory</text>
<text x="31.750" y="47.687"  fill="#000000" text-anchor="start" font-size="0.80" font-family="verdana" font-style="normal" font-weight="400">
+iterator</text>
<rect x="31.600" y="47.787" width="4.920" height="0.400" fill="#FFFFFF" stroke="none" stroke-width="0"/>
<rect x="31.600" y="47.787" width="4.920" height="0.400" fill="none" stroke="#000000" stroke-width="0.100" />
<polyline fill="none" stroke="#000000" stroke-width="0.100"  points="36.570,46.387 47.800,46.387 47.800,15.050 40.481,15.050 "/>
<polygon fill="#FFFFFF" stroke="none" stroke-width="0.100" points="39.222,15.050 39.922,14.810 40.622,15.050 39.922,15.290 "/>
<polygon fill="none" stroke="#000000" stroke-width="0.100"  points="39.222,15.050 39.922,14.810 40.622,15.050 39.922,15.290 "/>
<polyline fill="none" stroke="#000000" stroke-width="0.100"  points="34.060,44.537 34.060,40.550 25.725,40.550 "/>
<polygon fill="#FFFFFF" stroke="none" stroke-width="0.100" points="24.467,40.550 25.167,40.310 25.867,40.550 25.167,40.790 "/>
<polygon fill="none" stroke="#000000" stroke-width="0.100"  points="24.467,40.550 25.167,40.310 25.867,40.550 25.167,40.790 "/>
<rect x="39.245" y="27.050" width="7.383" height="1.400" fill="#FFFFFF" stroke="none" stroke-width="0"/>
<rect x="39.245" y="27.050" width="7.383" height="1.400" fill="none" stroke="#000000" stroke-width="0.100" />
<text x="42.936" y="28.050"  fill="#000000" text-anchor="middle" font-size="1.00" font-family="verdana" font-style="normal" font-weight="700">
DBQueryIterator</text>
<rect x="39.245" y="28.450" width="7.383" height="0.400" fill="#FFFFFF" stroke="none" stroke-width="0"/>
<rect x="39.245" y="28.450" width="7.383" height="0.400" fill="none" stroke="#000000" stroke-width="0.100" />
<rect x="39.245" y="28.850" width="7.383" height="2.600" fill="#FFFFFF" stroke="none" stroke-width="0"/>
<rect x="39.245" y="28.850" width="7.383" height="2.600" fill="none" stroke="#000000" stroke-width="0.100" />
<text x="39.395" y="29.537"  fill="#000000" text-anchor="start" font-size="0.80" font-family="verdana" font-style="normal" font-weight="400">
+init()</text>
<text x="39.395" y="30.337"  fill="#000000" text-anchor="start" font-size="0.80" font-family="verdana" font-style="normal" font-weight="400">
+setNext()</text>
<text x="39.395" y="31.137"  fill="#000000" text-anchor="start" font-size="0.80" font-family="verdana" font-style="normal" font-weight="400">
+row2struct()</text>
<rect x="23.750" y="27.000" width="7.412" height="1.400" fill="#FFFFFF" stroke="none" stroke-width="0"/>
<rect x="23.750" y="27.000" width="7.412" height="1.400" fill="none" stroke="#000000" stroke-width="0.100" />
<text x="27.456" y="28.000"  fill="#000000" text-anchor="middle" font-size="1.00" font-family="verdana" font-style="normal" font-weight="700">
DBStringIterator</text>
<rect x="23.750" y="28.400" width="7.412" height="0.400" fill="#FFFFFF" stroke="none" stroke-width="0"/>
<rect x="23.750" y="28.400" width="7.412" height="0.400" fill="none" stroke="#000000" stroke-width="0.100" />
<rect x="23.750" y="28.800" width="7.412" height="1.800" fill="#FFFFFF" stroke="none" stroke-width="0"/>
<rect x="23.750" y="28.800" width="7.412" height="1.800" fill="none" stroke="#000000" stroke-width="0.100" />
<text x="23.900" y="29.487"  fill="#000000" text-anchor="start" font-size="0.80" font-family="verdana" font-style="normal" font-weight="400">
+init()</text>
<text x="23.900" y="30.287"  fill="#000000" text-anchor="start" font-size="0.80" font-family="verdana" font-style="normal" font-weight="400">
+setNext()</text>
<rect x="31.745" y="27.000" width="6.558" height="1.400" fill="#FFFFFF" stroke="none" stroke-width="0"/>
<rect x="31.745" y="27.000" width="6.558" height="1.400" fill="none" stroke="#000000" stroke-width="0.100" />
<text x="35.024" y="28.000"  fill="#000000" text-anchor="middle" font-size="1.00" font-family="verdana" font-style="normal" font-weight="700">
DBNullIterator</text>
<rect x="31.745" y="28.400" width="6.558" height="0.400" fill="#FFFFFF" stroke="none" stroke-width="0"/>
<rect x="31.745" y="28.400" width="6.558" height="0.400" fill="none" stroke="#000000" stroke-width="0.100" />
<rect x="31.745" y="28.800" width="6.558" height="1.000" fill="#FFFFFF" stroke="none" stroke-width="0"/>
<rect x="31.745" y="28.800" width="6.558" height="1.000" fill="none" stroke="#000000" stroke-width="0.100" />
<text x="31.895" y="29.487"  fill="#000000" text-anchor="start" font-size="0.80" font-family="verdana" font-style="normal" font-weight="400">
+init()</text>
</svg>